<svg width="298" height="70" viewBox="0 0 298 70" fill="none" xmlns="http://www.w3.org/2000/svg">
<path d="M4.37634 30.1262C4.37634 30.1262 28.3777 26.6958 38.9766 56.0068L106.536 10.427H99.151L41.028 47.7875C41.0622 47.7875 34.1216 21.6691 4.37634 30.1262Z" fill="#2A2422"/>
<path d="M10.4622 22.1785C10.4622 22.1785 31.5916 19.1557 40.9254 44.9684L100.45 4.82288H93.9541L42.7717 37.7001C42.7717 37.7001 36.6859 14.7064 10.4622 22.1785Z" fill="#433833"/>
<path d="M0 35.8661C0 35.8661 29.9846 33.7943 33.4378 70L106.536 17.5255H100.553L38.2928 60.3881C38.2928 60.3881 29.0615 26.6958 0 35.8661Z" fill="#241813"/>
<path d="M12.2058 17.1519C12.2058 17.1519 36.173 13.3139 43.4555 33.8962L96.8602 0L12.2058 17.1519Z" fill="#666361"/>
<path d="M134.025 58.3163V20.2426H120.246V11.4459H157.889V20.2426H144.179V58.3163H134.025Z" fill="#2A221E"/>
<path d="M163.189 15.3857C163.189 12.4308 165.651 10.1213 168.557 10.1213C171.531 10.1213 173.924 12.4308 173.924 15.3857C173.924 18.3406 171.531 20.7181 168.557 20.7181C165.651 20.7181 163.189 18.3406 163.189 15.3857ZM164.078 58.3163V24.3862H173.07V58.3163H164.078Z" fill="#2A221E"/>
<path d="M205.037 58.3163V37.802C205.037 33.081 202.576 31.4847 198.746 31.4847C195.225 31.4847 192.455 33.4546 190.951 35.4925V58.3163H181.959V24.3862H190.951V28.8015C193.139 26.1863 197.31 23.5371 202.918 23.5371C210.405 23.5371 214.029 27.7487 214.029 34.3717V58.3503H205.037V58.3163Z" fill="#2A221E"/>
<path d="M224.731 49.8932V32.164H219.055V24.3522H224.731V15.114H233.791V24.3862H240.698V32.198H233.757V47.5158C233.757 49.6215 234.885 51.2518 236.868 51.2518C238.202 51.2518 239.501 50.7763 239.98 50.2669L241.894 57.0257C240.561 58.2144 238.133 59.1994 234.407 59.1994C228.116 59.1654 224.731 55.9389 224.731 49.8932Z" fill="#2A221E"/>
<path d="M266.306 58.3163V11.4459H272.187V58.3163H266.306Z" fill="#241813"/>
<path d="M284.05 51.2178V29.0053H278.375V24.3862H284.05V15.114H289.35V24.3862H296.29V29.0393H289.35V50.131C289.35 52.6443 290.478 54.4784 292.803 54.4784C294.273 54.4784 295.709 53.8331 296.427 53.0859L298 57.0257C296.667 58.2824 294.752 59.1994 291.641 59.1994C286.615 59.1654 284.05 56.2785 284.05 51.2178Z" fill="#241813"/>
</svg>
